<svg width="10" height="5" viewBox="0 0 10 5" fill="none" xmlns="http://www.w3.org/2000/svg">
<path d="M4.1955 4.7675L0.142 0.739C0.101166 0.698167 0.0672496 0.652 0.0402496 0.600501C0.0134163 0.549001 0 0.494417 0 0.436751C0 0.315584 0.0396661 0.212501 0.118999 0.127501C0.198333 0.0425009 0.301583 0 0.42875 0H8.86775C8.99492 0 9.09817 0.0436664 9.1775 0.131C9.25683 0.218166 9.2965 0.32125 9.2965 0.44025C9.2965 0.470083 9.24892 0.569917 9.15375 0.739751L5.10075 4.7675C5.04358 4.82483 4.976 4.87108 4.898 4.90625C4.82 4.94158 4.73658 4.95925 4.64775 4.95925C4.55892 4.95925 4.47567 4.94158 4.398 4.90625C4.32033 4.87108 4.25283 4.82483 4.1955 4.7675Z" fill="#1A1C1F"/>
</svg>
