<svg width="18" height="18" viewBox="0 0 18 18" fill="none" xmlns="http://www.w3.org/2000/svg">
<path d="M18 8.79024C18 12.9402 15.79 18.0002 9.13 18.0002C4.12461 18.0334 0.03852 14.0055 0 9.00024C0.03852 3.99485 4.12461 -0.0330555 9.13 0.000204506C11.2007 0.00788451 13.2085 0.712375 14.83 2.0002C14.942 2.09173 15.0109 2.22581 15.02 2.3702C15.0206 2.51629 14.963 2.65661 14.86 2.7602C14.209 3.3554 13.5882 3.98285 13 4.6402C12.8289 4.8285 12.5422 4.85456 12.34 4.7002C11.4161 4.01648 10.2888 3.66418 9.14 3.7002C6.18528 3.7002 3.79 6.09548 3.79 9.05024C3.79 12.0049 6.18528 14.4002 9.14 14.4002C12.14 14.4002 13.41 13.1202 14.07 10.8502H9.5C9.2239 10.8502 9 10.6263 9 10.3502V7.70024C9 7.42404 9.2239 7.20024 9.5 7.20024H17.5C17.7302 7.19874 17.9244 7.37135 17.95 7.60024C17.9871 7.99575 18.0038 8.39294 18 8.79024Z" fill="#1A1C1F"/>
</svg>
