<svg width="5" height="8" viewBox="0 0 5 8" fill="none" xmlns="http://www.w3.org/2000/svg">
<path d="M0.584961 0.5C0.602081 0.500008 0.609061 0.50296 0.611328 0.503906C0.613714 0.504905 0.622763 0.508505 0.637695 0.523438L3.93359 3.81934C3.94945 3.83519 3.95601 3.84528 3.95801 3.84863C3.95908 3.85121 3.96094 3.85667 3.96094 3.86816L3.95801 3.88672C3.95619 3.88982 3.94976 3.89983 3.93359 3.91602L0.621094 7.22852C0.61326 7.23635 0.607345 7.24122 0.604492 7.24316C0.603175 7.24405 0.601973 7.24393 0.601562 7.24414H0.594727C0.576456 7.24347 0.561555 7.24124 0.532227 7.21191C0.518236 7.1979 0.513966 7.18944 0.512695 7.18652C0.511771 7.18431 0.508789 7.1765 0.508789 7.15918C0.508823 7.1421 0.511777 7.13501 0.512695 7.13281C0.513809 7.13019 0.517649 7.12102 0.532227 7.10645L3.41797 4.22168L3.77148 3.86816L0.515625 0.612305C0.507791 0.60447 0.503893 0.598556 0.501953 0.595703L0.5 0.592773C0.499899 0.591445 0.499885 0.589089 0.5 0.585938C0.500678 0.567693 0.502929 0.552735 0.532227 0.523438C0.547139 0.508533 0.55621 0.504904 0.558594 0.503906C0.56099 0.502915 0.568087 0.5 0.584961 0.5Z" fill="#1A1C1F" stroke="#1A1C1F"/>
</svg>
